<svg xmlns="http://www.w3.org/2000/svg" viewBox="0 0 67.73 67.73"><path fill="#11171b" d="M0 0h67.73v67.73H0z"/><path fill="#fff" d="M28.75 29.66q0 3.3-2.04 4.82Q24.67 36 21.11 36h-2.55v7.35h-2.47V23.57h5.02q3.65 0 5.63 1.52 2 1.52 2 4.57zm-2.67.03q0-2.16-1.26-3.13-1.24-1-3.4-1h-2.86v8.46h2.78q2.24 0 3.48-.98 1.26-.97 1.26-3.35zm20.27 13.66h-2.42l-.6-10.33q-.17-2.73-.17-7.15l-3.33 13.92h-2.5l-3.56-13.92q.06 1.03.06 2.75 0 2.64-.12 4.4l-.51 10.33h-2.36l1.12-19.78h3.48l3.21 13.55 3.07-13.55h3.5z"/><path fill="#fff" d="M49.76 20.5h1.83v25.95h-1.83z"/></svg>
